<svg width="24" height="24" viewBox="0 0 24 24" fill="none" xmlns="http://www.w3.org/2000/svg">
<path d="M20.71 19.29L17.31 15.9C18.407 14.5025 19.0022 12.7767 19 11C19 9.41775 18.5308 7.87103 17.6518 6.55544C16.7727 5.23985 15.5233 4.21447 14.0615 3.60897C12.5997 3.00347 10.9912 2.84504 9.43931 3.15372C7.88746 3.4624 6.462 4.22433 5.34318 5.34315C4.22436 6.46197 3.46243 7.88743 3.15375 9.43928C2.84507 10.9911 3.0035 12.5997 3.609 14.0615C4.2145 15.5233 5.23988 16.7727 6.55547 17.6518C7.87107 18.5308 9.41778 19 11 19C12.7767 19.0022 14.5025 18.407 15.9 17.31L19.29 20.71C19.383 20.8037 19.4936 20.8781 19.6155 20.9289C19.7373 20.9797 19.868 21.0058 20 21.0058C20.132 21.0058 20.2628 20.9797 20.3846 20.9289C20.5065 20.8781 20.6171 20.8037 20.71 20.71C20.8038 20.617 20.8782 20.5064 20.9289 20.3846C20.9797 20.2627 21.0058 20.132 21.0058 20C21.0058 19.868 20.9797 19.7373 20.9289 19.6154C20.8782 19.4936 20.8038 19.383 20.71 19.29ZM5.00003 11C5.00003 9.81332 5.35193 8.65328 6.01122 7.66658C6.6705 6.67989 7.60758 5.91085 8.70393 5.45673C9.80029 5.0026 11.0067 4.88378 12.1706 5.11529C13.3345 5.3468 14.4036 5.91825 15.2427 6.75736C16.0818 7.59648 16.6532 8.66558 16.8847 9.82946C17.1163 10.9933 16.9974 12.1997 16.5433 13.2961C16.0892 14.3925 15.3202 15.3295 14.3335 15.9888C13.3468 16.6481 12.1867 17 11 17C9.40874 17 7.88261 16.3679 6.75739 15.2426C5.63218 14.1174 5.00003 12.5913 5.00003 11Z" fill="white"/>
</svg>
